<svg width="51" height="33" viewBox="0 0 51 33" fill="none" xmlns="http://www.w3.org/2000/svg">
<path d="M50.7751 0H0V32.4914H50.7751V0Z" fill="#29ABE2"/>
<path d="M50.7751 10.161H0V22.3453H50.7751V10.161Z" fill="white"/>
<path d="M26.2591 19.6572L24.7231 17.693L24.2948 20.1446L23.9552 17.6782L22.3601 19.5834L23.3053 17.2795L20.9571 18.1361L22.9213 16.6001L20.4697 16.1718L22.9361 15.8321L21.0309 14.2371L23.3349 15.1823L22.4783 12.8341L24.0142 14.7983L24.4425 12.3467L24.7822 14.8131L26.3772 12.9079L25.4468 15.2118L27.7803 14.3552L25.816 15.8912L28.2677 16.3195L25.8013 16.6592L27.7064 18.2542L25.4025 17.309L26.2591 19.6572Z" fill="#FFCC33"/>
</svg>
