<svg width="32" height="14" viewBox="0 0 32 14" fill="none" xmlns="http://www.w3.org/2000/svg">
<rect x="17.1711" y="2.86829" width="14.3418" height="10.2345" fill="#0D0A1C"/>
<mask id="path-2-inside-1_122_266" fill="white">
<rect x="21" width="7" height="9" rx="1"/>
</mask>
<rect x="21" width="7" height="9" rx="1" stroke="#0D0A1C" stroke-width="4" stroke-linejoin="round" mask="url(#path-2-inside-1_122_266)"/>
<path d="M8.51099 12.7986L10.8096 9.46294L8.70141 6.37903H11.6529L12.469 7.83917H12.4962L13.2987 6.37903H16.0326L14.0468 9.41259L16.3046 12.7986H13.3531L12.3738 11.0867H12.3466L11.3129 12.7986H8.51099Z" fill="#0D0A1C"/>
<path d="M3.99881 13C1.9314 13 0.503252 12.0559 0.19042 10.5832H2.74748C2.8835 10.9231 3.23713 11.2881 3.94441 11.2881C4.8557 11.2881 5.44056 10.6965 5.50857 9.45035H5.48136C5.01892 9.86573 4.37965 10.193 3.46836 10.193C1.60497 10.193 0 8.9972 0 7.12168C0 5.23357 1.65937 4 3.99881 4C5.08692 4 6.09343 4.33986 6.7599 4.84336C7.7664 5.5986 8.18804 6.81958 8.18804 8.49371C8.18804 9.79021 7.84801 11.0364 7.09993 11.842C6.36546 12.6224 5.37255 13 3.99881 13ZM4.02601 8.44336C4.8829 8.44336 5.46776 7.86434 5.46776 7.12168C5.46776 6.37902 4.8829 5.8 4.02601 5.8C3.15552 5.8 2.58427 6.37902 2.58427 7.12168C2.58427 7.86434 3.15552 8.44336 4.02601 8.44336Z" fill="#0D0A1C"/>
</svg>
