<svg width="208" height="148" viewBox="0 0 208 148" fill="none" xmlns="http://www.w3.org/2000/svg">
<path d="M89.6149 31.005L83.0054 143.995C82.9066 145.624 84.1834 147 85.7846 147H122.543C124.151 147 125.421 145.617 125.322 143.988L118.367 30.7651C118.19 27.9294 117.471 25.1502 116.251 22.5967L106.636 2.5282C105.627 0.419074 102.686 0.404968 101.649 2.49999L91.9498 22.1734C90.5954 24.9245 89.7983 27.9294 89.622 31.005H89.6149Z" fill="#0D0A1C"/>
<path d="M90.2004 27.0336H117.922" stroke="#F4F2FF" stroke-width="2" stroke-miterlimit="10"/>
<path d="M103.864 0.9552L111.355 27.0336L115.087 147" stroke="#F4F2FF" stroke-width="2" stroke-miterlimit="10"/>
<path d="M65.0607 134.292C68.8932 134.292 72 131.13 72 127.23C72 125.306 71.2433 123.561 70.0163 122.289C70.5541 121.368 70.8659 120.292 70.8659 119.142C70.8659 116.344 69.0317 113.982 66.5211 113.23C65.3742 110.733 62.8854 109 59.9991 109C57.1127 109 54.6239 110.733 53.4789 113.23C50.9683 113.982 49.1341 116.344 49.1341 119.142C49.1341 120.292 49.444 121.367 49.9837 122.289C48.7567 123.562 48 125.306 48 127.23C48 131.13 51.1068 134.292 54.9393 134.292C56.4435 134.292 57.8346 133.804 58.9705 132.976L58.9669 145.414H53.0157V147H66.982V145.414H60.5258V132.572C61.742 133.642 63.3268 134.292 65.0607 134.292ZM54.9377 132.705C51.9712 132.705 49.5574 130.249 49.5574 127.23C49.5574 125.79 50.1044 124.428 51.0962 123.398L51.9368 122.526L51.3223 121.476C50.9103 120.771 50.6933 119.964 50.6933 119.142C50.6933 117.125 52.0206 115.321 53.9205 114.752L54.5969 114.55L54.8941 113.9C55.8167 111.887 57.8204 110.586 60.0009 110.586C62.1814 110.586 64.1853 111.887 65.1077 113.9L65.4049 114.55L66.0813 114.752C67.9811 115.32 69.3085 117.125 69.3085 119.142C69.3085 119.966 69.0915 120.773 68.6795 121.476L68.065 122.526L68.9056 123.398C69.8974 124.428 70.4444 125.788 70.4444 127.23C70.4444 130.249 68.0304 132.705 65.0641 132.705C63.5617 132.705 62.1688 132.089 61.1386 130.972L60.5296 130.31V128.49L64.1889 126.577L63.476 125.165L60.5278 126.705V119.979H59.7492L58.967 119.98V123.159L56.5968 121.563L55.7362 122.888L58.967 125.063V130.859L58.8613 130.974C57.833 132.089 56.4382 132.705 54.9377 132.705Z" fill="#0D0A1C"/>
<path d="M51 131C53.4 133.4 56.5 133.5 59 131H61C64 134.5 68.3889 132.5 69.5 130.5C72 126 69.8333 123.333 68.5 122.5C70 120 69.8 119 69 117C68.2 115 66.3333 114.667 65.5 114.5C64.5 112 62.8 110.5 60 110.5C57.2 110.5 55.5 112 54.5 114.5C54 114.5 52.6 115 51 117C49.4001 119 50.5 121.5 51.5 122.5C49.4999 123.5 48 128 51 131Z" fill="#0D0A1C"/>
<path fill-rule="evenodd" clip-rule="evenodd" d="M91.7531 143.643H97.3214C98.2422 143.643 99 144.4 99 145.321C99 146.242 98.2422 147 97.3214 147H1.67864C0.757794 147 0 146.242 0 145.321C0 144.4 0.757782 143.643 1.67864 143.643H7.24202V49.6835C7.24202 48.7626 7.9998 48.0048 8.92066 48.0048H50.1672C51.088 48.0048 51.8458 48.7578 51.8458 49.6787V56.7197H68.4407V49.6787C68.4407 48.7578 69.1985 48 70.1193 48C71.0402 48 71.798 48.7578 71.798 49.6787V56.7197H90.0761C90.997 56.7197 91.7548 57.4775 91.7548 58.3984L91.7531 143.643ZM10.5983 51.362V143.643H38.8953V73.262C38.8953 72.3411 39.6531 71.5881 40.5739 71.5833H48.4874V51.3617L10.5983 51.362ZM18.4783 66.5665C17.5575 66.5665 16.7997 65.8087 16.7997 64.8878V58.3983C16.7997 57.4774 17.5574 56.7196 18.4783 56.7196H40.5737C41.4945 56.7196 42.2523 57.4774 42.2523 58.3983V64.8878C42.2523 65.8087 41.4945 66.5665 40.5737 66.5665H18.4783ZM29.5285 101.321C30.4493 101.321 31.2071 102.078 31.2071 102.999V109.484C31.2071 110.405 30.4493 111.163 29.5285 111.163H18.4783C17.5575 111.163 16.7997 110.405 16.7997 109.489V102.994C16.7997 102.078 17.5574 101.321 18.4783 101.321L29.5285 101.321ZM29.5285 116.184C30.4493 116.184 31.2071 116.942 31.2071 117.863V124.352C31.2071 125.273 30.4493 126.031 29.5285 126.031H18.4783C17.5575 126.031 16.7997 125.273 16.7997 124.352V117.863C16.7997 116.942 17.5574 116.184 18.4783 116.184H29.5285ZM29.5285 86.4521C30.4493 86.4521 31.2023 87.2099 31.2071 88.1308V94.6203C31.2071 95.5411 30.4493 96.299 29.5285 96.299H18.4783C17.5575 96.299 16.7997 95.5412 16.7997 94.6203V88.1308C16.7997 87.2099 17.5574 86.4521 18.4783 86.4521H29.5285ZM29.5285 71.583C30.4493 71.5878 31.2023 72.3408 31.2071 73.2617V79.756C31.2071 80.6769 30.4493 81.4347 29.5285 81.4347H18.4783C17.5575 81.4347 16.7997 80.6769 16.7997 79.756V73.2617C16.7997 72.3408 17.5574 71.583 18.4783 71.583H29.5285ZM50.1564 74.9405H42.2525V143.643H77.0236V74.9405H50.1564ZM49.4945 104.678C48.5737 104.673 47.8159 103.92 47.8159 102.999V96.0444C47.8159 95.1236 48.5737 94.3657 49.4945 94.3657H56.4489C57.3697 94.3657 58.1275 95.1235 58.1275 96.0444V102.999C58.1275 103.92 57.3697 104.673 56.4489 104.678H49.4945ZM51.1732 97.7232V101.32H54.7702V97.7232H51.1732ZM63.1633 104.678C62.2425 104.673 61.4847 103.92 61.4847 102.999V96.0444C61.4847 95.1236 62.2425 94.3657 63.1633 94.3657H70.1177C71.0385 94.3657 71.7963 95.1235 71.7963 96.0444V102.999C71.7963 103.92 71.0385 104.673 70.1177 104.678H63.1633ZM64.842 97.7232V101.32H68.439V97.7232H64.842ZM49.4945 90.4651C48.5737 90.4651 47.8159 89.7073 47.8159 88.7864V81.8317C47.8159 80.9108 48.5737 80.1529 49.4945 80.1529H56.4489C57.3697 80.1529 58.1275 80.9108 58.1275 81.8317V88.7864C58.1275 89.7072 57.3697 90.4651 56.4489 90.4651H49.4945ZM51.1732 83.5104V87.1076H54.7702V83.5104H51.1732ZM63.1633 90.4651C62.2425 90.4651 61.4847 89.7073 61.4847 88.7864V81.8317C61.4847 80.9108 62.2425 80.1529 63.1633 80.1529H70.1177C71.0385 80.1529 71.7963 80.9108 71.7963 81.8317V88.7864C71.7963 89.7072 71.0385 90.4651 70.1177 90.4651H63.1633ZM64.842 83.5104V87.1076H68.439V83.5104H64.842ZM88.396 60.0705H51.8445V71.5817H78.7025C79.6234 71.5817 80.3812 72.3395 80.3812 73.2604V143.641H88.3953L88.396 60.0705Z" fill="#0D0A1C"/>
<path d="M60.7934 131.331H59.2308V126.084L56 123.909L56.8606 122.585L59.2308 124.18V121.002L60.013 121H60.7916V127.726L63.7398 126.186L64.4527 127.598L60.7934 129.511V131.331Z" fill="#F4F2FF"/>
<path d="M153.061 134.292C156.893 134.292 160 131.13 160 127.23C160 125.306 159.243 123.561 158.016 122.289C158.554 121.368 158.866 120.292 158.866 119.142C158.866 116.344 157.032 113.982 154.521 113.23C153.374 110.733 150.885 109 147.999 109C145.113 109 142.624 110.733 141.479 113.23C138.968 113.982 137.134 116.344 137.134 119.142C137.134 120.292 137.444 121.367 137.984 122.289C136.757 123.562 136 125.306 136 127.23C136 131.13 139.107 134.292 142.939 134.292C144.443 134.292 145.835 133.804 146.971 132.976L146.967 145.414H141.016V147H154.982V145.414H148.526V132.572C149.742 133.642 151.326 134.292 153.06 134.292L153.061 134.292ZM142.938 132.705C139.971 132.705 137.557 130.249 137.557 127.23C137.557 125.79 138.104 124.428 139.096 123.398L139.937 122.526L139.322 121.476C138.91 120.771 138.693 119.964 138.693 119.142C138.693 117.125 140.021 115.321 141.92 114.752L142.597 114.55L142.894 113.9C143.817 111.887 145.82 110.586 148.001 110.586C150.181 110.586 152.185 111.887 153.108 113.9L153.405 114.55L154.081 114.752C155.981 115.32 157.309 117.125 157.309 119.142C157.309 119.966 157.092 120.773 156.679 121.476L156.065 122.526L156.906 123.398C157.897 124.428 158.444 125.788 158.444 127.23C158.444 130.249 156.03 132.705 153.064 132.705C151.562 132.705 150.169 132.089 149.139 130.972L148.53 130.31V128.49L152.189 126.577L151.476 125.165L148.528 126.705V119.979H147.749L146.967 119.98V123.159L144.597 121.563L143.736 122.888L146.967 125.063V130.859L146.861 130.974C145.833 132.089 144.438 132.705 142.938 132.705Z" fill="#0D0A1C"/>
<path d="M138.696 131C141.096 133.4 144.5 134 147 131.5H148.5C151.5 135 156.389 132.5 157.5 130.5C160 126 157.53 123.333 156.196 122.5L156.204 122.487C157.699 119.996 158.299 118.996 157.5 117C156.7 115 154.333 114.667 153.5 114.5C152.5 112 150.496 110.5 147.696 110.5C144.896 110.5 143.196 112 142.196 114.5C141.696 114.5 140.296 115 138.696 117C137.096 119 138.196 121.5 139.196 122.5C137.196 123.5 135.696 128 138.696 131Z" fill="#0D0A1C"/>
<path fill-rule="evenodd" clip-rule="evenodd" d="M116.247 143.643H110.679C109.758 143.643 109 144.401 109 145.322C109 146.243 109.758 147 110.679 147H206.321C207.242 147 208 146.243 208 145.322C208 144.401 207.242 143.643 206.321 143.643H200.758V83.8215C200.758 82.9006 200 82.1428 199.079 82.1428H160.5C159.579 82.1428 159.513 82.8958 159.513 83.8167V66.6498H141L140 66.6497C139.39 66.6497 138.803 66.6497 137.882 66.6497C136.961 66.6497 137 66.6498 136.204 66.6498H134.5H117.924C117.003 66.6498 116.245 67.4076 116.245 68.3285L116.247 143.643ZM197.402 85.5V143.643H169.105V88.7869C169.105 87.866 168.347 87.113 167.426 87.1082H159.513V85.4998L197.402 85.5ZM178.472 101.321C177.551 101.321 176.793 102.079 176.793 103V109.484C176.793 110.405 177.551 111.163 178.472 111.163H189.522C190.443 111.163 191.2 110.405 191.2 109.489V102.995C191.2 102.079 190.443 101.321 189.522 101.321L178.472 101.321ZM178.472 116.185C177.551 116.185 176.793 116.943 176.793 117.864V124.353C176.793 125.274 177.551 126.032 178.472 126.032H189.522C190.443 126.032 191.2 125.274 191.2 124.353V117.864C191.2 116.943 190.443 116.185 189.522 116.185H178.472ZM157.844 90.4654H165.748V143.643H130.976V90.4654H157.844ZM158.505 104.678C159.426 104.674 160.184 103.921 160.184 103V96.045C160.184 95.1241 159.426 94.3663 158.505 94.3663H151.551C150.63 94.3663 149.872 95.1241 149.872 96.045V103C149.872 103.921 150.63 104.674 151.551 104.678H158.505ZM156.827 97.7237V101.321H153.23V97.7237H156.827ZM144.837 104.678C145.758 104.674 146.515 103.921 146.515 103V96.045C146.515 95.1241 145.758 94.3663 144.837 94.3663H137.882C136.961 94.3663 136.204 95.1241 136.204 96.045V103C136.204 103.921 136.961 104.674 137.882 104.678H144.837ZM143.158 97.7237V101.321H139.561V97.7237H143.158ZM119.604 70.0006H156.155V87.1066H142.726H129.297C128.377 87.1066 127.619 87.8644 127.619 88.7853V143.641H119.605L119.604 70.0006Z" fill="#0D0A1C"/>
<path d="M148.49 131.331H146.927V126.084L143.696 123.909L144.557 122.585L146.927 124.18V121.002L147.709 121H148.488V127.726L151.436 126.186L152.149 127.598L148.49 129.511V131.331Z" fill="#F4F2FF"/>
</svg>
