<svg width="81" height="82" viewBox="0 0 81 82" fill="none" xmlns="http://www.w3.org/2000/svg">
<path d="M48.752 0.934098L48.5675 1.1017L48.752 0.934097C48.4452 0.596466 48.0237 0.401611 47.5785 0.401611H33.6C33.1548 0.401611 32.7333 0.596466 32.4265 0.934098C32.1205 1.27093 31.9522 1.72307 31.9522 2.19007V18.8632H2.84731C2.40212 18.8632 1.98063 19.058 1.67385 19.3956C1.36781 19.7325 1.19946 20.1846 1.19946 20.6516V79.1132C1.19946 79.5802 1.3678 80.0323 1.67386 80.3691C1.98063 80.7068 2.40213 80.9016 2.84731 80.9016H78.3312C78.7764 80.9016 79.1979 80.7068 79.5047 80.3691C79.8107 80.0323 79.979 79.5802 79.979 79.1132V20.6516C79.979 20.1846 79.8107 19.7325 79.5047 19.3956C79.1979 19.058 78.7764 18.8632 78.3312 18.8632H49.2263V2.19007C49.2263 1.72306 49.058 1.27093 48.752 0.934098ZM35.2479 3.97853H45.9306V25.017H35.2479V3.97853ZM76.6833 77.3247H4.49516V22.4401H31.9522V26.8055C31.9522 27.2725 32.1205 27.7246 32.4265 28.0614C32.7333 28.3991 33.1548 28.5939 33.6 28.5939H47.5785C48.0237 28.5939 48.4452 28.3991 48.752 28.0614C49.058 27.7246 49.2263 27.2725 49.2263 26.8055V22.4401H76.6833V77.3247Z" fill="#F4F2FF" stroke="#F4F2FF" stroke-width="0.5" stroke-linejoin="round"/>
<path d="M22.8539 51.2409C23.0808 51.357 23.2694 51.5236 23.4011 51.7243C23.5327 51.925 23.6028 52.1527 23.6044 52.3848L23.8544 52.383C23.8544 52.3831 23.8544 52.3831 23.8544 52.3831C23.8633 53.6511 23.4797 54.8948 22.7487 55.9785C22.0179 57.062 20.9686 57.9433 19.718 58.5302L19.7163 58.531C18.2495 59.2058 16.9618 60.1456 15.9358 61.2878C14.9878 62.343 14.2829 63.549 13.8573 64.8375H36.3561L30.5839 58.2374C29.3715 57.6684 28.3582 56.8158 27.6543 55.7722C26.9504 54.7287 26.5827 53.5341 26.5913 52.3183M22.8539 51.2409L22.9685 51.0187C22.0253 50.5322 21.3373 49.7486 21.0355 48.8364L19.8503 45.0607L19.8505 45.0607L19.8476 45.0524C19.4705 43.9836 19.5122 42.834 19.9668 41.788C20.4211 40.7426 21.2636 39.8573 22.3644 39.281C23.2104 38.8861 24.1539 38.679 25.1129 38.679C26.0718 38.679 27.0151 38.8861 27.8611 39.2809C28.9592 39.8591 29.7985 40.7451 30.2501 41.7902C30.702 42.8361 30.7416 43.9846 30.3633 45.0521L30.3632 45.0521L30.3611 45.0586L29.1608 48.7683C29.1607 48.7685 29.1606 48.7686 29.1606 48.7688C28.859 49.6814 28.1709 50.4654 27.2274 50.9521C26.9647 51.0866 26.7424 51.2816 26.5856 51.5206C26.4285 51.7601 26.3433 52.0346 26.3413 52.3165C26.3413 52.3166 26.3413 52.3166 26.3413 52.3166L26.5913 52.3183M22.8539 51.2409C21.8575 50.7269 21.1215 49.8938 20.7976 48.9132L19.6118 45.1356M22.8539 51.2409L19.6118 45.1356M26.5913 52.3183C26.5929 52.0862 26.663 51.8585 26.7947 51.6578M26.5913 52.3183L26.7947 51.6578M19.6118 45.1356C19.2136 44.0069 19.2579 42.792 19.7375 41.6884C20.2171 40.5848 21.1038 39.6574 22.2535 39.0569L19.6118 45.1356ZM26.7947 51.6578C26.9263 51.4571 27.115 51.2905 27.3418 51.1744L26.7947 51.6578ZM32.0843 55.7091L32.0812 55.7077C31.4977 55.449 30.9935 55.074 30.6075 54.615C30.2583 54.1997 30.0144 53.7261 29.8891 53.2261C31.1257 52.3497 32.0315 51.15 32.4728 49.7883L32.4729 49.7882L33.6731 46.0788C33.6732 46.0785 33.6733 46.0783 33.6733 46.078C34.2592 44.3085 34.1596 42.4156 33.3918 40.7032C32.6242 38.9915 31.2353 37.5631 29.4531 36.6402L29.4532 36.64L29.4441 36.6358C28.0896 36.0014 26.5822 35.6704 25.0528 35.6704C23.5234 35.6704 22.0161 36.0014 20.6615 36.6358L20.6614 36.6356L20.6526 36.6402C18.8704 37.5631 17.4815 38.9915 16.7139 40.7032C15.9461 42.4156 15.8465 44.3085 16.4323 46.078C16.4324 46.0783 16.4325 46.0785 16.4326 46.0788L17.6328 49.7882L17.6328 49.7882L17.6341 49.792C18.1038 51.1676 19.0484 52.3698 20.3254 53.233C20.2143 53.7399 19.982 54.2227 19.6411 54.6483C19.265 55.118 18.7671 55.505 18.186 55.7759C16.2733 56.6556 14.5905 57.8857 13.2497 59.3866C11.9107 60.8856 10.9432 62.6208 10.4129 64.4788L9.86041 66.0138L9.85732 66.0224L9.85486 66.0311C9.78754 66.272 9.78398 66.524 9.84456 66.7664C9.90511 67.0087 10.0275 67.2327 10.1993 67.4215C10.371 67.6102 10.5875 67.7589 10.8305 67.858C11.0725 67.9567 11.3356 68.0042 11.5998 67.9978H38.611C38.8752 68.0042 39.1383 67.9567 39.3802 67.858C39.6232 67.7589 39.8397 67.6102 40.0114 67.4215C40.1833 67.2327 40.3056 67.0087 40.3662 66.7664C40.4268 66.524 40.4232 66.272 40.3559 66.0311L40.356 66.0311L40.354 66.0249L39.8595 64.4179C39.3296 62.5578 38.3615 60.8206 37.0211 59.3201C35.6802 57.819 33.9972 56.5889 32.0843 55.7091Z" fill="#F4F2FF" stroke="#F4F2FF" stroke-width="0.5"/>
<path d="M48.2083 38.251C47.8238 38.251 47.4609 38.42 47.1974 38.7112C46.9347 39.0015 46.7909 39.3904 46.7909 39.7913C46.7909 40.1922 46.9347 40.5811 47.1974 40.8714C47.4609 41.1626 47.8238 41.3316 48.2083 41.3316H62.2175C62.602 41.3316 62.965 41.1626 63.2284 40.8714L63.043 40.7037L63.2284 40.8714C63.4911 40.5811 63.635 40.1922 63.635 39.7913C63.635 39.3904 63.4911 39.0015 63.2284 38.7112L63.043 38.8789L63.2284 38.7112C62.965 38.42 62.602 38.251 62.2175 38.251H48.2083Z" fill="#F4F2FF" stroke="#F4F2FF" stroke-width="0.5"/>
<path d="M47.5939 56.3157C47.4381 56.3157 47.3072 56.3887 47.2085 56.4841C47.1108 56.5785 47.0333 56.7045 46.973 56.8451C46.8526 57.126 46.7909 57.4896 46.7909 57.856C46.7909 58.2224 46.8526 58.5859 46.973 58.8669C47.0333 59.0075 47.1108 59.1335 47.2085 59.2279C47.3072 59.3233 47.4381 59.3963 47.5939 59.3963H54.2298C54.3855 59.3963 54.5165 59.3233 54.6152 59.2279C54.7128 59.1335 54.7904 59.0075 54.8506 58.8669C54.971 58.5859 55.0328 58.2224 55.0328 57.856C55.0328 57.4896 54.971 57.126 54.8506 56.8451C54.7904 56.7045 54.7128 56.5785 54.6152 56.4841C54.5165 56.3887 54.3855 56.3157 54.2298 56.3157H47.5939Z" fill="#F4F2FF" stroke="#F4F2FF" stroke-width="0.5"/>
<path d="M59.6369 56.3157C59.4811 56.3157 59.3502 56.3887 59.2515 56.4841C59.1538 56.5785 59.0763 56.7045 59.016 56.8451C58.8956 57.126 58.8339 57.4896 58.8339 57.856C58.8339 58.2224 58.8956 58.5859 59.016 58.8669C59.0763 59.0075 59.1538 59.1335 59.2515 59.2279C59.3502 59.3233 59.4811 59.3963 59.6369 59.3963H66.2728C66.4285 59.3963 66.5595 59.3233 66.6582 59.2279C66.7558 59.1335 66.8334 59.0075 66.8936 58.8669C67.014 58.5859 67.0758 58.2224 67.0758 57.856C67.0758 57.4896 67.014 57.126 66.8936 56.8451C66.8334 56.7045 66.7558 56.5785 66.6582 56.4841C66.5595 56.3887 66.4285 56.3157 66.2728 56.3157H59.6369Z" fill="#F4F2FF" stroke="#F4F2FF" stroke-width="0.5"/>
<path d="M46.7909 46.6731C46.7909 47.0736 46.9338 47.4624 47.1952 47.7528C47.4573 48.044 47.8188 48.2135 48.2022 48.2135H69.1054C69.4887 48.2135 69.8502 48.044 70.1124 47.7528C70.3737 47.4624 70.5167 47.0736 70.5167 46.6731C70.5167 46.2726 70.3737 45.8839 70.1124 45.5935C69.8502 45.3022 69.4887 45.1328 69.1054 45.1328H48.2022C47.8188 45.1328 47.4573 45.3022 47.1952 45.5935C46.9338 45.8839 46.7909 46.2726 46.7909 46.6731Z" fill="#F4F2FF" stroke="#F4F2FF" stroke-width="0.5"/>
<path d="M69.1054 62.3372H48.2022C47.8188 62.3372 47.4573 62.5066 47.1952 62.7978C46.9338 63.0882 46.7909 63.477 46.7909 63.8775C46.7909 64.278 46.9338 64.6667 47.1952 64.9571C47.4573 65.2484 47.8188 65.4178 48.2022 65.4178H69.1054C69.4887 65.4178 69.8502 65.2484 70.1124 64.9571C70.3737 64.6667 70.5167 64.278 70.5167 63.8775C70.5167 63.477 70.3737 63.0882 70.1124 62.7978C69.8502 62.5066 69.4887 62.3372 69.1054 62.3372Z" fill="#F4F2FF" stroke="#F4F2FF" stroke-width="0.5"/>
</svg>
