<svg width="191" height="158" viewBox="0 0 191 158" fill="none" xmlns="http://www.w3.org/2000/svg">
<path d="M167.299 47.0059L167.3 47.0002C167.197 45.6281 165.079 44.7697 163.007 44.4099C163.026 43.541 162.856 41.3712 161.063 39.0104C159.256 36.6284 159.479 34.5883 159.489 34.5138L161.142 22.4588C161.183 22.1553 161.06 21.8544 160.822 21.6573C160.764 21.6114 160.701 21.5712 160.636 21.5437L160.901 19.6102L160.3 18.8267L156.36 18.2867L155.577 18.8805L155.312 20.814C155.254 20.8247 155.196 20.836 155.135 20.8591C154.835 20.9762 154.628 21.2446 154.584 21.56L152.933 33.6082C152.922 33.6889 152.581 35.7136 150.2 37.5209C147.205 39.7935 146.804 42.479 146.789 42.5906L143.578 66.0176C143.502 66.5696 143.52 69.3497 151.23 70.4063C154.787 70.8939 156.869 70.586 158.077 70.0634L157.909 71.2903C155.766 71.1232 153.534 71.467 153.331 72.9489C153.1 74.6344 155.782 75.6081 158.144 75.9318C160.511 76.2562 163.351 76.0394 163.582 74.3538C163.785 72.8726 161.733 71.9411 159.619 71.5246L160.954 61.7828C162.71 61.8654 164.495 61.4281 165.956 60.435C167.698 59.2591 171.3 55.5857 167.299 47.0059ZM162.242 46.0351C162.439 46.0622 162.625 46.0941 162.805 46.1251C164.122 46.3687 165.009 46.7678 165.398 47.0487C164.947 47.2144 163.986 47.3602 162.652 47.2404C162.471 47.2221 162.283 47.2027 162.086 47.1756C161.658 47.117 161.271 47.0389 160.923 46.9533C159.962 46.7271 159.297 46.4213 158.969 46.1868C158.958 46.1788 158.946 46.1715 158.935 46.1634L158.974 46.1502C159.354 46.0126 160.076 45.897 161.062 45.9376C161.42 45.9476 161.814 45.9765 162.242 46.0351ZM156.864 19.7573L159.424 20.1083L159.207 21.6885C158.821 21.7428 158.33 21.7765 157.803 21.7042C157.332 21.6397 156.94 21.5037 156.643 21.3685L156.864 19.7573ZM158.047 67.9383C157.963 68.0907 157.021 69.4328 151.468 68.6716C145.908 67.9097 145.363 66.3638 145.323 66.1944L148.524 42.8356C148.535 42.7548 148.869 40.7299 151.258 38.9165C154.253 36.6439 154.652 33.9646 154.667 33.853L156.146 23.0683C156.535 23.2226 157.015 23.3642 157.566 23.4397C158.18 23.5239 158.756 23.5084 159.238 23.4543L157.755 34.2755C157.74 34.3871 157.403 37.0749 159.67 40.0688C161.054 41.8935 161.248 43.5184 161.26 44.2142C160.551 44.1799 159.853 44.2045 159.225 44.3144L159.305 43.7316C155.227 39.0312 150.629 42.5424 150.629 42.5424L147.48 65.5171C148.019 65.8121 149.234 66.307 151.744 66.651C154.248 66.9942 155.556 66.8451 156.156 66.7062L156.99 60.6263C157.596 60.9878 158.254 61.2604 158.935 61.4553L158.047 67.9383ZM161.691 74.0953C161.18 74.2836 160.009 74.4457 158.379 74.2223C156.749 73.9989 155.664 73.5276 155.228 73.2095C155.732 73.0261 156.904 72.8647 158.534 73.0881C160.164 73.3115 161.248 73.7821 161.691 74.0953ZM164.99 59.0082C163.814 59.8065 162.341 60.1419 160.897 60.0449C160.315 60.0088 159.73 59.8978 159.174 59.7143C158.478 59.4987 157.821 59.169 157.25 58.7308C156.981 58.5358 156.731 58.3191 156.507 58.0736C154.257 55.6496 154.753 51.8352 157.846 47.5104C158.1 47.6962 158.392 47.8693 158.718 48.0213C159.298 48.3026 159.983 48.516 160.688 48.6698C161.073 48.7605 161.467 48.8338 161.851 48.8864C162.037 48.912 162.229 48.9318 162.418 48.9512C163.763 49.0785 165.174 49.0192 166.132 48.6138C168.121 53.4014 167.726 57.1544 164.99 59.0082Z" fill="#0D0A1C"/>
<path d="M156.139 21.4851L156.387 19.6741L160.009 20.1705L159.761 21.9815C159.418 22.2419 158.55 22.738 157.826 22.6388C157.101 22.5395 156.399 21.8283 156.139 21.4851Z" fill="#0D0A1C"/>
<path d="M162.028 51.7955C161.841 51.7635 161.657 51.7319 161.465 51.7055C161.075 51.652 160.675 51.6166 160.286 51.6005C159.546 51.5627 158.828 51.5966 158.211 51.7204C157.174 51.9131 156.423 52.3338 156.323 53.0593C156.317 53.1022 156.312 53.1394 156.312 53.1838C156.15 54.6017 156.616 55.9471 157.495 56.9512C157.997 57.5259 158.64 57.9919 159.371 58.2817C159.737 58.4263 160.12 58.5296 160.523 58.5848C160.715 58.6112 160.902 58.6239 161.092 58.6313C163.509 58.6785 165.635 56.9429 166.03 54.522C166.042 54.4794 166.048 54.4358 166.054 54.3929C166.228 53.1097 164.24 52.1874 162.028 51.7955ZM161.641 54.6153C161.461 54.597 161.273 54.5776 161.075 54.5506C160.647 54.4919 160.259 54.4201 159.911 54.3345C158.993 54.1142 158.345 53.8293 157.955 53.5863C157.717 53.4399 157.57 53.3124 157.525 53.2247C157.592 53.1516 157.769 53.0621 158.038 52.9852C158.478 52.8566 159.18 52.7568 160.123 52.7909C160.482 52.8021 160.875 52.8374 161.302 52.8959C161.499 52.923 161.685 52.9549 161.865 52.9859C163.817 53.3421 164.797 54.0189 164.874 54.2004C164.744 54.4088 163.617 54.7981 161.641 54.6153Z" fill="#0D0A1C"/>
<g clip-path="url(#clip0_122_264)">
<path d="M62.3594 40.4993C62.1211 40.2913 61.7862 40.2234 61.4861 40.3256C60.1192 40.4527 58.7356 40.3777 57.3896 40.1023C54.5308 39.7105 50.979 39.2163 47.4914 40.0638C44.0461 41.0087 41.1533 43.3548 39.4957 46.544C37.133 45.0789 34.3889 44.3737 31.6328 44.5251L31.651 44.493C32.2319 43.3154 33.0548 42.2796 34.0695 41.4587C34.5172 41.1865 34.6605 40.5991 34.3884 40.1447C34.2608 39.9289 34.0525 39.7727 33.8096 39.7073C30.8606 39.0189 27.7988 38.9913 24.8445 39.6253C24.8199 38.9524 24.7589 38.2839 24.655 37.6159C26.2703 36.933 27.9718 36.4717 29.7117 36.2338C30.2256 36.1885 30.6081 35.7327 30.5601 35.2128C30.5587 35.2078 30.556 35.1976 30.5546 35.1925C30.5002 34.669 30.0369 34.2821 29.518 34.3288C27.7249 34.5483 25.9715 34.9964 24.2957 35.6737C24.2721 35.5659 24.2523 35.4516 24.2301 35.3489C23.8426 34.0829 23.7255 32.7444 23.8946 31.4325C24.0318 30.9228 23.7344 30.3937 23.2307 30.2569C22.9928 30.1902 22.7328 30.2218 22.5188 30.3444C22.2523 30.4919 16.0094 34.0781 14.3721 40.2081C13.9243 41.8827 13.8734 43.6359 14.2167 45.3377C13.4848 44.2292 12.9944 42.9799 12.7822 41.6669C11.8894 36.1714 15.772 30.728 15.8162 30.6726C16.1212 30.2485 16.0301 29.6478 15.6072 29.3316C15.1857 29.0206 14.597 29.1077 14.287 29.5332C14.1069 29.7826 9.90057 35.6606 10.9184 41.9435C11.3833 44.6999 12.8111 47.2038 14.9484 48.9902C12.8209 50.5061 12.326 53.4871 13.8425 55.641C14.7907 56.996 16.3641 57.7594 17.9973 57.6642L24.8071 83.0786C24.9443 83.5908 25.4651 83.8916 25.9659 83.7574C26.4668 83.6232 26.766 83.0973 26.6301 82.5901L19.8707 57.3634C23.3723 61.1163 28.3354 64.994 33.2142 63.9096C39.009 62.6178 41.6811 59.8688 42.696 58.4879C44.174 59.1356 47.5199 60.1035 52.6085 58.7401C52.939 58.6515 53.2782 58.5552 53.6247 58.446C61.3504 56.0063 62.657 41.9307 62.7106 41.3293C62.7383 41.012 62.6062 40.6995 62.3644 40.4979L62.3594 40.4993ZM21.93 33.0352C22.0271 33.9387 22.1821 34.8376 22.3871 35.7231C22.4374 35.9705 22.4889 36.2231 22.5418 36.4807C20.8457 37.3429 19.344 38.5497 18.1346 40.0262C17.0979 41.3259 16.3664 42.8428 15.992 44.4706C15.8061 43.2159 15.8764 41.9359 16.1984 40.7135C17.158 37.1025 20.098 34.4122 21.93 33.0352ZM14.9493 53.6213C14.5389 52.0897 15.433 50.5183 16.9456 50.113C18.4581 49.7077 20.0181 50.6215 20.4285 52.1532C20.8389 53.6848 19.9448 55.2562 18.4323 55.6615C16.9197 56.0667 15.3597 55.153 14.9493 53.6213Z" fill="#0D0A1C"/>
<path d="M29.642 49.7986C28.1491 50.1171 25.3499 52.2315 25.0374 52.4674C24.6233 52.785 24.5419 53.383 24.8536 53.805C26.5071 56.0092 30.4029 59.0694 35.0207 57.832C36.1999 57.5052 37.3057 56.9643 38.2934 56.243C38.4697 56.1197 38.597 55.9334 38.6546 55.7277L39.3084 53.3999C39.3921 53.1111 39.3292 52.7964 39.147 52.5571C39.0202 52.3845 35.933 48.3956 29.6369 49.7999L29.642 49.7986ZM36.9306 54.8633C32.2919 57.9653 28.4843 54.9141 27.0093 53.3959C27.9378 52.6742 28.9636 52.0949 30.0578 51.6712C34.1759 50.7526 36.5408 52.5868 37.3445 53.3825L36.927 54.8697L36.9306 54.8633Z" fill="#F4F2FF"/>
<path d="M54.9776 44.445C54.589 44.3969 51.1176 43.9627 49.6555 44.436C43.5007 46.3678 42.823 51.371 42.7981 51.5788C42.76 51.8771 42.8679 52.1798 43.0797 52.3894L44.8099 54.0784C44.964 54.2328 45.166 54.3254 45.3803 54.3441C46.5977 54.48 47.8244 54.3904 49.0091 54.0839C53.6269 52.8465 55.4757 48.2471 55.8005 45.5128C55.8645 44.9901 55.4937 44.5078 54.9762 44.4399L54.9776 44.445ZM45.8757 52.4665L44.7706 51.3873C45.0651 50.3028 46.1997 47.5254 50.2253 46.262C51.3862 46.0868 52.5705 46.0793 53.7341 46.235C53.2258 48.2846 51.4667 52.8383 45.8757 52.4665Z" fill="#F4F2FF"/>
</g>
<circle cx="62.3534" cy="93.2742" r="17.2742" fill="#0D0A1C"/>
<mask id="mask0_122_264" style="mask-type:alpha" maskUnits="userSpaceOnUse" x="0" y="94" width="123" height="50">
<rect x="0.767578" y="94.0254" width="121.67" height="49.5694" fill="#D9D9D9"/>
</mask>
<g mask="url(#mask0_122_264)">
<circle cx="62.3533" cy="145.097" r="34.5483" fill="#0D0A1C"/>
</g>
<circle cx="129.948" cy="93.2742" r="17.2742" fill="#0D0A1C"/>
<mask id="mask1_122_264" style="mask-type:alpha" maskUnits="userSpaceOnUse" x="68" y="94" width="123" height="50">
<rect x="68.3622" y="94.0254" width="121.67" height="49.5694" fill="#D9D9D9"/>
</mask>
<g mask="url(#mask1_122_264)">
<circle cx="129.948" cy="145.097" r="34.5483" fill="#0D0A1C"/>
</g>
<g clip-path="url(#clip1_122_264)">
<path d="M69.5157 131.042L69.5161 131.043L69.8316 131.792L69.9605 132.098H70.2924H74.4667C76.6664 132.098 78.5 133.997 78.5 136.398V153.196C78.5 155.597 76.6664 157.496 74.4667 157.496H49.5333C47.3336 157.496 45.5 155.597 45.5 153.196V136.401C45.5 134.001 47.3336 132.102 49.5333 132.102H53.7076H54.0395L54.1684 131.796L54.4839 131.047L54.5231 130.954V130.952C55.1929 129.447 56.6175 128.5 58.1648 128.5H65.8352C67.413 128.5 68.8634 129.485 69.5157 131.042Z" fill="#F4F2FF" stroke="#0D0A1C"/>
<path d="M52.3658 137.215C52.3658 137.88 51.858 138.413 51.2342 138.413C50.6105 138.413 50.1027 137.876 50.1027 137.215C50.1027 136.555 50.6105 136.017 51.2342 136.017C51.858 136.017 52.3658 136.555 52.3658 137.215Z" fill="#0D0A1C"/>
<path fill-rule="evenodd" clip-rule="evenodd" d="M69.0984 143.816C69.0984 139.666 65.9209 136.299 61.9982 136.299C58.0755 136.299 54.898 139.663 54.898 143.816C54.898 147.969 58.0755 151.333 61.9982 151.333C65.9209 151.333 69.0984 147.969 69.0984 143.816ZM61.9982 138.303C64.8728 138.303 67.2052 140.772 67.2052 143.816C67.2052 146.859 64.8728 149.329 61.9982 149.329C59.1236 149.329 56.7912 146.859 56.7912 143.816C56.7912 140.772 59.1236 138.303 61.9982 138.303Z" stroke="#0D0A1C" stroke-miterlimit="10"/>
<path d="M61.9437 149.21C64.7876 149.21 67.0931 146.769 67.0931 143.758C67.0931 140.747 64.7876 138.306 61.9437 138.306C59.0997 138.306 56.7942 140.747 56.7942 143.758C56.7942 146.769 59.0997 149.21 61.9437 149.21Z" fill="#0D0A1C"/>
</g>
<path d="M51 111C48.7361 116.306 45.5667 129.735 51 141" stroke="#F4F2FF" stroke-width="2"/>
<path d="M73 111C74.5092 116.306 76.6222 129.735 73 141" stroke="#F4F2FF" stroke-width="2"/>
<path d="M94.7784 41.986C92.0505 44.7434 87.9667 46.644 83.9155 47.9444L81.7669 50.7137C80.598 52.2202 80.8714 54.3893 82.3781 55.5574C83.0076 56.0463 83.7526 56.283 84.4923 56.283C85.5225 56.283 86.5418 55.8236 87.2223 54.9467L97.8993 41.1858L96.1222 40.6657C95.7167 41.051 95.2717 41.4874 94.7784 41.986Z" fill="#0D0A1C"/>
<path d="M98.1018 17.1118C99.1202 16.9731 100.312 16.7162 101.535 16.2458C102.738 15.7826 104.632 14.5535 105.762 13.3892C109.057 9.99335 108.09 9.89638 106.926 8.14996C106.54 8.21846 102.674 9.89638 102.269 9.89638C101.817 9.89638 101.104 10.4785 100.185 10.6534C99.358 11.0607 99.2395 11.4132 98.9086 12.0151C98.81 12.1634 98.7255 12.3242 98.6633 12.4999C98.6633 12.4999 98.6575 12.5159 98.6354 12.5742C98.5125 12.9073 97.9758 14.2952 97.0754 16.0373C97.432 16.3389 97.7781 16.6933 98.1018 17.1118Z" fill="#0D0A1C"/>
<path d="M105.179 13.832C105.59 13.374 107.467 11.7853 107.83 11.2555C107.877 11.1875 107.928 11.1237 107.98 11.0624C108.459 10.2051 109.37 9.64876 110.388 9.64876C110.618 9.64876 110.848 9.67749 111.073 9.73439C115.416 10.8442 116.905 11.1456 116.905 11.1456C116.905 11.1456 116.921 11.3328 116.948 11.6364C115.693 11.4157 113.72 10.9809 110.936 10.27C109.753 9.96834 108.55 10.6829 108.249 11.8656C107.948 13.0487 108.662 14.251 109.845 14.5526C113.504 15.4818 115.796 15.9696 117.291 16.1585C117.311 16.161 117.332 16.164 117.351 16.1663L117.353 16.1665C117.744 16.2127 118.084 16.24 118.42 16.24C118.759 16.2317 119.076 16.2361 119.605 16.0605C119.866 15.9635 120.217 15.8094 120.583 15.426C120.954 15.0567 121.231 14.3839 121.213 13.832C121.21 13.3431 121.072 12.9884 120.949 12.7421C120.697 12.2684 120.473 12.0736 120.278 11.8852C119.911 11.5577 119.572 11.3411 119.178 11.1C117.832 10.2923 115.85 9.38194 114.123 8.61739C112.406 7.86112 110.994 7.28522 110.982 7.28053C110.671 7.15375 110.348 7.10541 110.033 7.12198C110.003 7.12309 109.974 7.1253 109.944 7.12778C109.891 7.13248 109.839 7.14049 109.786 7.14933C109.781 7.15043 109.774 7.15043 109.768 7.15181L109.763 7.15319C109.665 7.17032 109.568 7.19297 109.474 7.22335C108.569 7.44266 107.748 7.72219 106.965 8.02906C106.861 8.1633 106.753 8.29478 106.639 8.42073C106.785 9.41122 105.282 12.1952 105.179 13.832Z" fill="#0D0A1C"/>
<path d="M114.899 34.1708C114.103 31.9264 113.646 30.073 113.391 28.8088C113.264 28.1765 113.187 27.6918 113.143 27.3794C113.121 27.2236 113.108 27.1101 113.1 27.0432C113.097 27.0123 113.095 26.9916 113.093 26.9805C113.093 26.9761 113.093 26.9736 113.093 26.9728C113.091 26.9518 113.086 26.9313 113.084 26.9104C114.136 22.439 114.603 19.6051 114.406 16.2038C113.286 15.9657 111.949 15.6506 110.337 15.2462C108.396 17.5432 105.932 19.3002 103.118 20.373C102.626 20.5608 102.141 20.7213 101.664 20.8608C101.596 22.3752 101.125 24.2485 100.16 26.9642C100.155 26.9855 100.147 27.0092 100.142 27.0313L96.1755 32.1432C96.1691 32.1937 96.1636 32.2437 96.1575 32.2943C97.4651 32.6658 99.9855 33.5184 102.696 35.0045L106.586 29.9904C107.48 34.5584 110.416 44.9271 119.684 55.3969C120.366 56.1664 121.315 56.5592 122.269 56.5592C123.083 56.5594 123.9 56.273 124.558 55.6902C125.985 54.4254 126.116 52.2431 124.851 50.8165C119.438 44.7094 116.493 38.6632 114.899 34.1708Z" fill="#0D0A1C"/>
<path d="M70.3533 50.6212L68.9214 51.8083C67.7472 52.782 67.5845 54.5232 68.5585 55.6977C69.1045 56.3567 69.8928 56.697 70.6867 56.697C71.3079 56.697 71.9324 56.4887 72.4478 56.0617V56.0609L81.3252 48.7012C75.7118 50.1906 70.7579 50.5905 70.3815 50.619L70.3533 50.6212Z" fill="#0D0A1C"/>
<path d="M100.959 37.5622C99.8212 37.8473 98.9406 38.0685 96.5914 40.2271L100.41 41.3447L94.1566 51.5222C93.357 52.8218 93.7636 54.5227 95.0632 55.3223C96.3627 56.1212 98.0637 55.7143 98.8633 54.4147L107.011 41.1566C107.46 40.4257 107.544 39.5186 107.236 38.7176C106.927 37.9174 106.257 37.2998 105.434 37.0595L103.721 36.5585L103.702 36.5681C102.471 37.1835 101.668 37.3846 100.959 37.5622Z" fill="#0D0A1C"/>
<path d="M93.6531 15.9939C96.0021 14.7921 96.896 11.8433 95.6498 9.40759C94.4036 6.97184 91.4892 5.9715 89.1403 7.17329C86.7913 8.37507 85.8974 11.3239 87.1435 13.7596C88.3897 16.1954 91.3042 17.1957 93.6531 15.9939Z" fill="#0D0A1C"/>
<path d="M70.3398 50.0682C70.3398 50.0682 87.2809 48.7791 94.3859 41.5976C100.08 35.8422 99.738 37.9323 103.455 36.0734C98.9437 33.3574 95.854 32.8395 95.854 32.8395L95.6576 31.8576C95.8545 30.4171 96.192 28.79 96.7594 26.97C98.3211 26.8833 99.4983 25.4843 99.6262 23.2688C99.6621 22.6415 99.6085 21.9999 99.4834 21.3685C98.0957 21.6115 96.8616 21.6825 95.9095 21.6833C94.7914 21.6833 94.0774 21.5914 93.9459 21.5729C93.3606 21.4881 92.8441 21.1809 92.4903 20.7083C92.1359 20.236 91.9878 19.6537 92.0723 19.0698C92.2268 17.9901 93.1659 17.1745 94.2563 17.1745C94.3569 17.1745 94.4594 17.1816 94.5596 17.1957C94.5751 17.1974 94.5953 17.1999 94.6223 17.2021C94.6751 17.2079 94.7591 17.2176 94.8737 17.2264C95.0922 17.2438 95.4493 17.2648 95.9086 17.2648C96.3022 17.2648 96.8304 17.2474 97.4466 17.1883C95.7921 15.2595 93.6534 14.9537 92.6662 15.3744C91.5161 15.8644 90.043 16.8311 89.6746 20.1457C89.555 21.2207 89.3696 22.734 89.1738 24.2883L89.856 24.1179C90.0767 24.0629 90.3021 24.0345 90.528 24.0345C91.7964 24.0345 92.8974 24.8954 93.2054 26.1276C93.5749 27.6048 92.6726 29.1076 91.1957 29.478L88.7106 30.0987C88.6139 30.123 88.5153 30.1396 88.4167 30.1534C88.3518 30.647 88.3126 30.9417 88.3126 30.9417C88.0212 31.6891 87.6662 32.4956 87.2362 33.3687C86.9561 33.5428 86.6813 33.7201 86.4072 33.8985C82.9726 36.1356 80.0326 38.6941 77.6411 41.1082C72.9207 45.8739 70.3398 50.0682 70.3398 50.0682Z" fill="#0D0A1C"/>
<path d="M87.5047 25.2749C86.32 25.5708 87.0489 29.6294 88.0391 29.6294C88.2165 29.6294 88.3965 29.6079 88.5764 29.5631L91.062 28.9416C92.2464 28.645 92.9654 27.4457 92.6695 26.2618C92.374 25.078 91.1747 24.3576 89.9908 24.6537L87.5047 25.2749Z" fill="#0D0A1C"/>
<path d="M103.433 10.4785C106.326 10.4785 108.672 8.13283 108.672 5.23926C108.672 2.3457 106.326 0 103.433 0C100.539 0 98.1937 2.3457 98.1937 5.23926C98.1937 8.13283 100.539 10.4785 103.433 10.4785Z" fill="#0D0A1C"/>
<path d="M102.921 19.8564C105.214 18.9822 107.655 17.4959 109.741 15.0962C109.73 15.0935 109.72 15.0907 109.709 15.0882C108.474 14.773 107.649 13.6668 107.632 12.4493C105.851 14.6841 103.76 15.9806 101.734 16.7615C99.4607 17.634 97.2753 17.8186 95.9081 17.8169C95.4438 17.8169 95.075 17.7965 94.8297 17.7768C94.7071 17.7672 94.6162 17.7575 94.5593 17.7509C94.5309 17.7476 94.5104 17.7451 94.5 17.7445L94.495 17.7437C93.589 17.6128 92.7488 18.2417 92.6187 19.1485C92.4878 20.0537 93.117 20.8939 94.0238 21.0248H94.0229C94.0862 21.0337 94.7867 21.1312 95.9081 21.1312C97.5604 21.1298 100.134 20.9218 102.921 19.8564Z" fill="#0D0A1C"/>
<defs>
<clipPath id="clip0_122_264">
<rect width="51.2648" height="55.6093" fill="white" transform="translate(7 31.2683) rotate(-15)"/>
</clipPath>
<clipPath id="clip1_122_264">
<rect width="34" height="30" fill="white" transform="translate(45 128)"/>
</clipPath>
</defs>
</svg>
