<svg width="88" height="88" viewBox="0 0 88 88" fill="none" xmlns="http://www.w3.org/2000/svg">
<mask id="path-1-inside-1_45_95" fill="white">
<path d="M83.4032 3.86675C80.9328 1.72521 77.7129 0.652728 74.4518 0.885244C71.1907 1.11776 68.1555 2.63622 66.014 5.10659C63.8724 7.57696 62.7999 10.7969 63.0325 14.058C63.265 17.3191 64.7834 20.3543 67.2538 22.4958C68.4509 23.4525 69.4368 24.6468 70.1494 26.0035L73.7591 33.2071C73.8892 33.4683 74.0896 33.688 74.3378 33.8416C74.5859 33.9951 74.8719 34.0765 75.1637 34.0765C75.4555 34.0765 75.7415 33.9951 75.9897 33.8416C76.2378 33.688 76.4382 33.4683 76.5683 33.2071L80.178 25.9956C80.8532 24.677 81.7999 23.5163 82.9559 22.59C84.3372 21.4668 85.4584 20.0574 86.2423 18.459C87.0263 16.8607 87.4543 15.1113 87.4968 13.3315C87.5393 11.5517 87.1953 9.7839 86.4886 8.1499C85.7819 6.5159 84.7292 5.0546 83.4032 3.86675ZM80.9706 20.1574C79.4711 21.3651 78.2437 22.876 77.3687 24.591L75.1637 29.0011L72.9587 24.5988C72.0552 22.8578 70.8023 21.3218 69.2784 20.0867C67.9025 18.9363 66.894 17.4077 66.3777 15.6901C65.8614 13.9726 65.8599 12.1413 66.3734 10.4229C66.887 8.70446 67.893 7.17428 69.267 6.02159C70.641 4.8689 72.3228 4.14429 74.1043 3.93737C74.4613 3.89713 74.8202 3.87617 75.1794 3.87459C77.437 3.86945 79.6148 4.70922 81.2845 6.22873C82.2743 7.1111 83.0609 8.19774 83.5899 9.41366C84.119 10.6296 84.3779 11.9458 84.3488 13.2715C84.3197 14.5972 84.0033 15.9008 83.4214 17.0923C82.8395 18.2839 82.006 19.335 80.9784 20.1731L80.9706 20.1574ZM75.1637 7.64906C74.0568 7.64906 72.9747 7.9774 72.0545 8.59253C71.1342 9.20766 70.4171 10.0819 69.9939 11.1048C69.5706 12.1276 69.4603 13.2529 69.6768 14.3385C69.8933 15.424 70.427 16.4209 71.2102 17.2031C71.9935 17.9853 72.9912 18.5175 74.077 18.7325C75.1628 18.9475 76.288 18.8356 77.3103 18.4109C78.3325 17.9862 79.2058 17.2679 79.8196 16.3468C80.4334 15.4256 80.7602 14.3431 80.7587 13.2362C80.7566 11.7537 80.1662 10.3326 79.1172 9.28502C78.0682 8.23745 76.6462 7.64906 75.1637 7.64906ZM75.1637 15.6924C74.6779 15.6924 74.203 15.5483 73.7991 15.2784C73.3952 15.0085 73.0804 14.6249 72.8945 14.1761C72.7086 13.7273 72.66 13.2335 72.7548 12.757C72.8495 12.2806 73.0835 11.8429 73.4269 11.4994C73.7704 11.1559 74.2081 10.922 74.6845 10.8273C75.161 10.7325 75.6548 10.7811 76.1036 10.967C76.5524 11.1529 76.936 11.4677 77.2059 11.8716C77.4758 12.2756 77.6199 12.7504 77.6199 13.2362C77.6199 13.8876 77.3611 14.5123 76.9005 14.973C76.4398 15.4336 75.8151 15.6924 75.1637 15.6924ZM56.8878 25.8936C53.5597 26.2387 50.4527 27.7215 48.0911 30.0918L40.7541 37.4289L14.5996 29.9663C13.9827 29.7893 13.3297 29.7812 12.7086 29.9427C12.0874 30.1042 11.521 30.4294 11.0684 30.8844L7.75696 34.188C7.36897 34.5796 7.07559 35.0546 6.89922 35.5768C6.72285 36.0991 6.66816 36.6547 6.73933 37.2013C6.81049 37.7479 7.00563 38.2711 7.30984 38.7307C7.61404 39.1904 8.01928 39.5745 8.49459 39.8536L27.3277 50.8396L19.3785 58.773L7.81189 53.5625C7.27113 53.321 6.66993 53.2486 6.0873 53.3551C5.50468 53.4615 4.96789 53.7417 4.54749 54.1589L1.71468 56.9996C1.41079 57.3011 1.17713 57.6659 1.03035 58.0681C0.883575 58.4702 0.82729 58.8998 0.865506 59.3261C0.903723 59.7525 1.0355 60.1652 1.25145 60.5348C1.4674 60.9045 1.76221 61.2219 2.11488 61.4646L11.8139 68.1817C11.3509 69.0449 10.9193 69.9316 10.527 70.8419C10.4017 71.1307 10.3661 71.4505 10.4248 71.7597C10.4836 72.069 10.634 72.3534 10.8566 72.5761L15.6433 77.3629C15.866 77.5854 16.1504 77.7358 16.4597 77.7946C16.769 77.8534 17.0887 77.8178 17.3775 77.6924C18.2878 77.3001 19.1745 76.8685 20.0377 76.4055L26.7548 86.1045C26.9981 86.4574 27.3162 86.7521 27.6865 86.9678C28.0568 87.1835 28.4702 87.3148 28.8971 87.3522H29.1561C29.5402 87.3529 29.9206 87.2768 30.2749 87.1286C30.6293 86.9804 30.9505 86.763 31.2198 86.4891L34.0605 83.6562C34.4777 83.2358 34.7579 82.6991 34.8644 82.1164C34.9708 81.5338 34.8985 80.9326 34.6569 80.3918L29.4464 68.8409L37.4112 60.8761L48.3972 79.7092C48.6742 80.1865 49.0577 80.5934 49.5177 80.8983C49.9778 81.2032 50.502 81.3978 51.0495 81.4669C51.2062 81.4787 51.3636 81.4787 51.5203 81.4669C51.9924 81.4672 52.4599 81.3745 52.8962 81.1941C53.3324 81.0136 53.7288 80.749 54.0628 80.4154L57.3664 77.1039C57.8214 76.6513 58.1467 76.0849 58.3081 75.4638C58.4696 74.8427 58.4615 74.1896 58.2846 73.5727L50.7906 47.4967L58.1276 40.1283C60.4947 37.7545 61.9694 34.636 62.3023 31.3003C62.3729 30.5717 62.2813 29.8365 62.0342 29.1475C61.787 28.4586 61.3904 27.8328 60.8728 27.3152C60.3552 26.7976 59.7295 26.401 59.0405 26.1539C58.3515 25.9067 57.6163 25.8152 56.8878 25.8858V25.8936ZM10.0719 37.1385C10.0105 37.1017 9.95825 37.0515 9.91887 36.9917C9.87948 36.932 9.854 36.8642 9.84429 36.7933C9.83577 36.7232 9.84336 36.6522 9.86648 36.5856C9.8896 36.5189 9.92763 36.4584 9.97769 36.4087L13.2813 33.1051C13.3241 33.0608 13.3753 33.0255 13.4319 33.0013C13.4885 32.977 13.5493 32.9643 13.6109 32.9639C13.6524 32.9556 13.695 32.9556 13.7365 32.9639L38.1802 39.9478L35.0414 43.1259H31.2198L32.6245 45.5114L29.674 48.4619L10.0719 37.1385ZM4.14728 59.032L6.68975 56.4895L17.0479 61.1507C15.7348 62.4922 14.5427 63.9469 13.4854 65.498L4.14728 59.032ZM17.1343 74.3731L13.8777 71.1166C15.2881 68.1353 17.202 65.4196 19.5355 63.089L47.2123 35.3729L52.4384 35.781L52.8465 41.0072L47.9185 45.9352L36.6265 57.2193L25.1305 68.7153C22.7998 71.0488 20.0841 72.9628 17.1029 74.3731H17.1343ZM29.1874 84.0721L22.7214 74.7341C24.2725 73.6767 25.7272 72.4846 27.0687 71.1715L31.7299 81.5297L29.1874 84.0721ZM55.232 74.483C55.2542 74.5612 55.2549 74.644 55.2342 74.7227C55.2135 74.8013 55.1721 74.873 55.1143 74.9303L51.8107 78.2417C51.761 78.2918 51.7005 78.3298 51.6339 78.353C51.5672 78.3761 51.4962 78.3837 51.4262 78.3751C51.3553 78.3654 51.2874 78.3399 51.2277 78.3006C51.1679 78.2612 51.1178 78.2089 51.0809 78.1476L39.7026 58.5847L42.6531 55.6342L45.0386 56.4895V53.2173L48.1775 50.0392L55.232 74.483ZM55.9383 37.9468L55.797 38.0802L55.4988 34.1566C55.47 33.7833 55.3086 33.4325 55.0438 33.1678C54.779 32.903 54.4283 32.7416 54.055 32.7128L50.1314 32.4146L50.2648 32.2733C52.1276 30.4202 54.5716 29.2647 57.186 29.0011C57.4533 28.9741 57.7233 29.007 57.9765 29.0972C58.2296 29.1874 58.4595 29.3328 58.6495 29.5229C58.8395 29.7129 58.9849 29.9428 59.0751 30.1959C59.1654 30.449 59.1982 30.719 59.1713 30.9864C58.9271 33.6095 57.7852 36.0681 55.9383 37.9468Z"/>
</mask>
<path d="M83.4032 3.86675C80.9328 1.72521 77.7129 0.652728 74.4518 0.885244C71.1907 1.11776 68.1555 2.63622 66.014 5.10659C63.8724 7.57696 62.7999 10.7969 63.0325 14.058C63.265 17.3191 64.7834 20.3543 67.2538 22.4958C68.4509 23.4525 69.4368 24.6468 70.1494 26.0035L73.7591 33.2071C73.8892 33.4683 74.0896 33.688 74.3378 33.8416C74.5859 33.9951 74.8719 34.0765 75.1637 34.0765C75.4555 34.0765 75.7415 33.9951 75.9897 33.8416C76.2378 33.688 76.4382 33.4683 76.5683 33.2071L80.178 25.9956C80.8532 24.677 81.7999 23.5163 82.9559 22.59C84.3372 21.4668 85.4584 20.0574 86.2423 18.459C87.0263 16.8607 87.4543 15.1113 87.4968 13.3315C87.5393 11.5517 87.1953 9.7839 86.4886 8.1499C85.7819 6.5159 84.7292 5.0546 83.4032 3.86675ZM80.9706 20.1574C79.4711 21.3651 78.2437 22.876 77.3687 24.591L75.1637 29.0011L72.9587 24.5988C72.0552 22.8578 70.8023 21.3218 69.2784 20.0867C67.9025 18.9363 66.894 17.4077 66.3777 15.6901C65.8614 13.9726 65.8599 12.1413 66.3734 10.4229C66.887 8.70446 67.893 7.17428 69.267 6.02159C70.641 4.8689 72.3228 4.14429 74.1043 3.93737C74.4613 3.89713 74.8202 3.87617 75.1794 3.87459C77.437 3.86945 79.6148 4.70922 81.2845 6.22873C82.2743 7.1111 83.0609 8.19774 83.5899 9.41366C84.119 10.6296 84.3779 11.9458 84.3488 13.2715C84.3197 14.5972 84.0033 15.9008 83.4214 17.0923C82.8395 18.2839 82.006 19.335 80.9784 20.1731L80.9706 20.1574ZM75.1637 7.64906C74.0568 7.64906 72.9747 7.9774 72.0545 8.59253C71.1342 9.20766 70.4171 10.0819 69.9939 11.1048C69.5706 12.1276 69.4603 13.2529 69.6768 14.3385C69.8933 15.424 70.427 16.4209 71.2102 17.2031C71.9935 17.9853 72.9912 18.5175 74.077 18.7325C75.1628 18.9475 76.288 18.8356 77.3103 18.4109C78.3325 17.9862 79.2058 17.2679 79.8196 16.3468C80.4334 15.4256 80.7602 14.3431 80.7587 13.2362C80.7566 11.7537 80.1662 10.3326 79.1172 9.28502C78.0682 8.23745 76.6462 7.64906 75.1637 7.64906ZM75.1637 15.6924C74.6779 15.6924 74.203 15.5483 73.7991 15.2784C73.3952 15.0085 73.0804 14.6249 72.8945 14.1761C72.7086 13.7273 72.66 13.2335 72.7548 12.757C72.8495 12.2806 73.0835 11.8429 73.4269 11.4994C73.7704 11.1559 74.2081 10.922 74.6845 10.8273C75.161 10.7325 75.6548 10.7811 76.1036 10.967C76.5524 11.1529 76.936 11.4677 77.2059 11.8716C77.4758 12.2756 77.6199 12.7504 77.6199 13.2362C77.6199 13.8876 77.3611 14.5123 76.9005 14.973C76.4398 15.4336 75.8151 15.6924 75.1637 15.6924ZM56.8878 25.8936C53.5597 26.2387 50.4527 27.7215 48.0911 30.0918L40.7541 37.4289L14.5996 29.9663C13.9827 29.7893 13.3297 29.7812 12.7086 29.9427C12.0874 30.1042 11.521 30.4294 11.0684 30.8844L7.75696 34.188C7.36897 34.5796 7.07559 35.0546 6.89922 35.5768C6.72285 36.0991 6.66816 36.6547 6.73933 37.2013C6.81049 37.7479 7.00563 38.2711 7.30984 38.7307C7.61404 39.1904 8.01928 39.5745 8.49459 39.8536L27.3277 50.8396L19.3785 58.773L7.81189 53.5625C7.27113 53.321 6.66993 53.2486 6.0873 53.3551C5.50468 53.4615 4.96789 53.7417 4.54749 54.1589L1.71468 56.9996C1.41079 57.3011 1.17713 57.6659 1.03035 58.0681C0.883575 58.4702 0.82729 58.8998 0.865506 59.3261C0.903723 59.7525 1.0355 60.1652 1.25145 60.5348C1.4674 60.9045 1.76221 61.2219 2.11488 61.4646L11.8139 68.1817C11.3509 69.0449 10.9193 69.9316 10.527 70.8419C10.4017 71.1307 10.3661 71.4505 10.4248 71.7597C10.4836 72.069 10.634 72.3534 10.8566 72.5761L15.6433 77.3629C15.866 77.5854 16.1504 77.7358 16.4597 77.7946C16.769 77.8534 17.0887 77.8178 17.3775 77.6924C18.2878 77.3001 19.1745 76.8685 20.0377 76.4055L26.7548 86.1045C26.9981 86.4574 27.3162 86.7521 27.6865 86.9678C28.0568 87.1835 28.4702 87.3148 28.8971 87.3522H29.1561C29.5402 87.3529 29.9206 87.2768 30.2749 87.1286C30.6293 86.9804 30.9505 86.763 31.2198 86.4891L34.0605 83.6562C34.4777 83.2358 34.7579 82.6991 34.8644 82.1164C34.9708 81.5338 34.8985 80.9326 34.6569 80.3918L29.4464 68.8409L37.4112 60.8761L48.3972 79.7092C48.6742 80.1865 49.0577 80.5934 49.5177 80.8983C49.9778 81.2032 50.502 81.3978 51.0495 81.4669C51.2062 81.4787 51.3636 81.4787 51.5203 81.4669C51.9924 81.4672 52.4599 81.3745 52.8962 81.1941C53.3324 81.0136 53.7288 80.749 54.0628 80.4154L57.3664 77.1039C57.8214 76.6513 58.1467 76.0849 58.3081 75.4638C58.4696 74.8427 58.4615 74.1896 58.2846 73.5727L50.7906 47.4967L58.1276 40.1283C60.4947 37.7545 61.9694 34.636 62.3023 31.3003C62.3729 30.5717 62.2813 29.8365 62.0342 29.1475C61.787 28.4586 61.3904 27.8328 60.8728 27.3152C60.3552 26.7976 59.7295 26.401 59.0405 26.1539C58.3515 25.9067 57.6163 25.8152 56.8878 25.8858V25.8936ZM10.0719 37.1385C10.0105 37.1017 9.95825 37.0515 9.91887 36.9917C9.87948 36.932 9.854 36.8642 9.84429 36.7933C9.83577 36.7232 9.84336 36.6522 9.86648 36.5856C9.8896 36.5189 9.92763 36.4584 9.97769 36.4087L13.2813 33.1051C13.3241 33.0608 13.3753 33.0255 13.4319 33.0013C13.4885 32.977 13.5493 32.9643 13.6109 32.9639C13.6524 32.9556 13.695 32.9556 13.7365 32.9639L38.1802 39.9478L35.0414 43.1259H31.2198L32.6245 45.5114L29.674 48.4619L10.0719 37.1385ZM4.14728 59.032L6.68975 56.4895L17.0479 61.1507C15.7348 62.4922 14.5427 63.9469 13.4854 65.498L4.14728 59.032ZM17.1343 74.3731L13.8777 71.1166C15.2881 68.1353 17.202 65.4196 19.5355 63.089L47.2123 35.3729L52.4384 35.781L52.8465 41.0072L47.9185 45.9352L36.6265 57.2193L25.1305 68.7153C22.7998 71.0488 20.0841 72.9628 17.1029 74.3731H17.1343ZM29.1874 84.0721L22.7214 74.7341C24.2725 73.6767 25.7272 72.4846 27.0687 71.1715L31.7299 81.5297L29.1874 84.0721ZM55.232 74.483C55.2542 74.5612 55.2549 74.644 55.2342 74.7227C55.2135 74.8013 55.1721 74.873 55.1143 74.9303L51.8107 78.2417C51.761 78.2918 51.7005 78.3298 51.6339 78.353C51.5672 78.3761 51.4962 78.3837 51.4262 78.3751C51.3553 78.3654 51.2874 78.3399 51.2277 78.3006C51.1679 78.2612 51.1178 78.2089 51.0809 78.1476L39.7026 58.5847L42.6531 55.6342L45.0386 56.4895V53.2173L48.1775 50.0392L55.232 74.483ZM55.9383 37.9468L55.797 38.0802L55.4988 34.1566C55.47 33.7833 55.3086 33.4325 55.0438 33.1678C54.779 32.903 54.4283 32.7416 54.055 32.7128L50.1314 32.4146L50.2648 32.2733C52.1276 30.4202 54.5716 29.2647 57.186 29.0011C57.4533 28.9741 57.7233 29.007 57.9765 29.0972C58.2296 29.1874 58.4595 29.3328 58.6495 29.5229C58.8395 29.7129 58.9849 29.9428 59.0751 30.1959C59.1654 30.449 59.1982 30.719 59.1713 30.9864C58.9271 33.6095 57.7852 36.0681 55.9383 37.9468Z" fill="#F4F2FF" stroke="#F4F2FF" stroke-width="3" mask="url(#path-1-inside-1_45_95)"/>
</svg>
