<svg width="62" height="80" viewBox="0 0 62 80" fill="none" xmlns="http://www.w3.org/2000/svg">
<path d="M56.8766 10.5778C53.1781 10.2153 49.5432 9.35606 46.0768 8.02194C41.8923 6.41588 37.9966 4.1428 34.4879 1.26434C32.4344 -0.421445 29.5637 -0.421445 27.5102 1.26434C24.0055 4.13928 20.1063 6.41235 15.9213 8.02194C12.4553 9.35606 8.82031 10.2153 5.12148 10.5778C2.20145 10.8642 0 13.3476 0 16.3494V45.0227C0 57.1825 6.56557 68.1163 17.1362 73.5577L28.478 79.3946C29.267 79.8006 30.1334 80 30.9965 80C31.863 80 32.726 79.797 33.5185 79.3946L44.8603 73.5577C55.4275 68.1161 61.9965 57.1816 61.9965 45.0227L62 16.3494C62 13.344 59.7985 10.8642 56.8785 10.5778H56.8766ZM56.3624 45.022C56.3624 54.9739 50.9909 63.9169 42.3434 68.369L31.0016 74.2058L19.6598 68.369C11.0126 63.917 5.64085 54.9729 5.64085 45.022L5.65846 16.3524C9.85 15.9391 13.9676 14.9675 17.8948 13.4593C22.6358 11.6394 27.0526 9.05815 30.9732 5.8026C34.9429 9.06177 39.3634 11.6394 44.1013 13.4593C48.0323 14.9711 52.1499 15.9427 56.3592 16.3524V45.0257L56.3624 45.022ZM44.2487 30.296C45.3583 31.4198 45.3759 33.2543 44.2839 34.3963L30.1946 49.1585C29.6663 49.7131 28.9407 50.0249 28.1869 50.0249H28.1798C27.419 50.0249 26.6934 49.7059 26.1686 49.1476L17.715 40.1858C16.6301 39.0365 16.6582 37.2021 17.7748 36.0855C18.8914 34.9688 20.6773 34.9942 21.7586 36.1471L28.2045 42.9773L40.2721 30.3358C41.364 29.1901 43.1428 29.1757 44.2559 30.2995L44.2487 30.296Z" fill="#F4F2FF"/>
</svg>
