<svg width="140" height="127" viewBox="0 0 140 127" fill="none" xmlns="http://www.w3.org/2000/svg">
<path d="M44.175 4L94.6617 30.1923L106.429 22.9799" stroke="#0D0A1C" stroke-width="7" stroke-linecap="round"/>
<path d="M67.7101 15.388L98.8372 4" stroke="#0D0A1C" stroke-width="7" stroke-linecap="round"/>
<g clip-path="url(#clip0_122_138)">
<path d="M30.9592 57.6154H9.28769C4.51021 57.6154 0.615387 61.5105 0.615387 66.2884V111.821C0.615387 115.407 3.52879 118.327 7.12116 118.327H14.4923C16.9304 123.45 22.3202 127 28.3692 127C34.4182 127 40.0759 123.45 42.5202 118.327H97.4921C99.9302 123.45 105.158 127 111.207 127C117.256 127 122.478 123.45 124.923 118.327H132.891C136.477 118.327 139.397 115.413 139.397 111.821V98.8449H139.385V92.6966C139.385 90.6903 138.909 88.6718 138.008 86.8754L126.972 64.8007C124.744 60.3685 120.287 57.6154 115.331 57.6154H96.0107" fill="#0D0A1C"/>
<path d="M43.6292 65.9415H15.8784C14.3423 65.9415 13.1046 66.9341 13.1046 68.1606V85.9256C13.1046 87.152 14.3485 88.1446 15.8784 88.1446H43.6354C45.1716 88.1446 46.4092 87.152 46.4092 85.9256V68.1606C46.4092 66.9341 45.1654 65.9415 43.6354 65.9415H43.6292Z" fill="#F4F2FF"/>
<path d="M43.6339 68.7169H15.88V85.3692H43.6339V68.7169Z" fill="#0D0A1C"/>
<path d="M85.1505 65.9415H56.2372C54.6381 65.9415 53.3477 66.9341 53.3477 68.1606V85.9256C53.3477 87.152 54.6442 88.1446 56.2372 88.1446H85.1505C86.7496 88.1446 88.04 87.152 88.04 85.9256V68.1606C88.04 66.9341 86.7434 65.9415 85.1505 65.9415Z" fill="#F4F2FF"/>
<path d="M85.2646 68.7169H56.1231V85.3692H85.2646V68.7169Z" fill="#0D0A1C"/>
<path d="M28.3692 122.837C22.2432 122.837 17.2677 117.855 17.2677 111.735C17.2677 105.616 22.2495 100.634 28.3692 100.634C34.489 100.634 39.4708 105.616 39.4708 111.735C39.4708 117.855 34.489 122.837 28.3692 122.837Z" fill="#F4F2FF"/>
<path d="M118.118 68.3945C117.341 66.8772 115.761 65.9415 114.018 65.9415H95.8855C94.619 65.9415 93.5908 66.9341 93.5908 68.1606V85.9256C93.5908 87.152 94.619 88.1446 95.8855 88.1446H124.601C125.391 88.1446 126.138 87.7463 126.551 87.0888C126.971 86.4313 127.009 85.6158 126.652 84.9267L118.112 68.3882L118.118 68.3945Z" fill="#F4F2FF"/>
<path d="M96.3661 85.3692V68.7169H115.719L124.12 85.3692H96.3661Z" fill="#0D0A1C"/>
<path d="M28.3692 120.061C32.9677 120.061 36.6954 116.334 36.6954 111.735C36.6954 107.137 32.9677 103.409 28.3692 103.409C23.7708 103.409 20.0431 107.137 20.0431 111.735C20.0431 116.334 23.7708 120.061 28.3692 120.061Z" fill="#0D0A1C"/>
<path d="M135.211 96.6519L129.222 94.8982C128.486 94.6827 127.714 95.1047 127.499 95.8409C127.283 96.5771 127.705 97.3486 128.441 97.5642L134.43 99.3179C135.166 99.5334 135.938 99.1114 136.153 98.3752C136.369 97.639 135.947 96.8675 135.211 96.6519Z" fill="#F4F2FF"/>
<path d="M134.965 104.043H130.805C130.038 104.043 129.416 104.664 129.416 105.432C129.416 106.199 130.038 106.82 130.805 106.82H134.965C135.732 106.82 136.354 106.199 136.354 105.432C136.354 104.664 135.732 104.043 134.965 104.043Z" fill="#F4F2FF"/>
<path d="M8.69513 103.252H4.53489C3.76788 103.252 3.14609 103.874 3.14609 104.641C3.14609 105.408 3.76788 106.03 4.53489 106.03H8.69513C9.46214 106.03 10.0839 105.408 10.0839 104.641C10.0839 103.874 9.46214 103.252 8.69513 103.252Z" fill="#F4F2FF"/>
<path d="M8.69513 96.314H4.53489C3.76788 96.314 3.14609 96.9358 3.14609 97.7029C3.14609 98.47 3.76788 99.0918 4.53489 99.0918H8.69513C9.46214 99.0918 10.0839 98.47 10.0839 97.7029C10.0839 96.9358 9.46214 96.314 8.69513 96.314Z" fill="#F4F2FF"/>
<path d="M111.631 122.837C105.505 122.837 100.529 117.855 100.529 111.735C100.529 105.616 105.511 100.634 111.631 100.634C117.751 100.634 122.732 105.616 122.732 111.735C122.732 117.855 117.751 122.837 111.631 122.837Z" fill="#F4F2FF"/>
<path d="M111.631 120.061C116.229 120.061 119.957 116.334 119.957 111.735C119.957 107.137 116.229 103.409 111.631 103.409C107.032 103.409 103.305 107.137 103.305 111.735C103.305 116.334 107.032 120.061 111.631 120.061Z" fill="#0D0A1C"/>
</g>
<defs>
<clipPath id="clip0_122_138">
<rect width="138.769" height="69.3846" fill="white" transform="translate(0.615387 57.6154)"/>
</clipPath>
</defs>
</svg>
