<?xml version="1.0" encoding="UTF-8"?>
<svg id="Layer_2" xmlns="http://www.w3.org/2000/svg" viewBox="0 0 169.1 119.26">
  <defs>
    <style>
      .cls-1 {
        fill: #255dc1;
      }
    </style>
  </defs>
  <g id="Layer_1-2" data-name="Layer_1">
    <polygon class="cls-1" points="111.14 0 114.23 .54 118.33 1.82 122.42 3.11 126.62 5.04 131.6 7.73 134.81 11.16 138.9 14.92 142.66 20.72 144.87 27.26 145.21 31.34 144.87 35.42 144.87 38.75 144.32 42.5 147.53 43.79 149.96 44.76 153.72 46.37 157.26 48.19 160.8 50.77 164.45 53.35 166.44 56.35 168.55 59.14 169.1 63.86 168.99 66.12 167.55 69.98 164.89 68.16 163.01 67.41 160.47 67.3 157.37 67.51 153.17 68.26 147.86 69.87 142 71.16 142.88 72.77 144.76 78.24 145.31 84.26 144.98 90.8 143.34 96.01 140.99 100.73 137.89 105.02 134.2 109.1 127.34 114.25 122.7 116.4 116.06 118.55 95.71 119.26 86.56 118.91 81.4 117.63 74.76 115.4 69.53 112.26 67.68 110.75 62.01 104.53 60.09 101.52 60.61 100.96 111.12 100.81 115.25 99.38 119.3 96.8 122.77 93.45 124.47 89.86 125.13 85.93 124.91 80.49 123.36 77.27 121.66 75.2 119.08 72.98 116.35 71.12 113.85 69.83 111.27 69.08 51.47 69.01 44.98 67.29 39.96 65.57 34.95 62.78 31.11 60.07 28.02 57.34 25.8 54.48 24.4 50.78 110.46 50.57 114.51 49.78 118.28 47.28 121.67 44.56 124.03 40.84 125.21 36.76 124.98 33.13 124.02 28.41 121.36 24.62 118.12 21.76 114.65 19.61 110.02 18.75 43.51 18.67 24.78 18.75 18.22 15.82 14.38 14.53 10.91 12.53 7.52 10.24 4.94 7.94 2.36 4.94 0 .79 .3 1.07 111.14 0"/>
  </g>
</svg>